<svg preserveAspectRatio="none" overflow="visible" style="display: block;" width="73" height="73" viewBox="0 0 73 73" fill="none" xmlns="http://www.w3.org/2000/svg">
<g id="Icon">
<path id="Vector" d="M30.4167 6.08333H42.5833" stroke="#F0B800" stroke-width="2.53333" stroke-linecap="round" stroke-linejoin="round"/>
<path id="Vector_2" d="M13.9917 33.4583C12.149 37.8877 11.6567 42.7629 12.5768 47.4713C13.4968 52.1796 15.788 56.5109 19.1625 59.9208C22.5724 63.2953 26.9038 65.5865 31.6121 66.5066C36.3204 67.4266 41.1956 66.9343 45.625 65.0917" stroke="#F0B800" stroke-width="4.67" stroke-linecap="round" stroke-linejoin="round"/>
<path id="Vector_3" d="M22.5083 22.5083C27.2445 19.2223 32.9934 17.7243 38.731 18.2814C44.4685 18.8384 49.8219 21.4143 53.8375 25.55C57.8493 29.5853 60.3201 34.899 60.8202 40.5672C61.3203 46.2353 59.8182 51.8995 56.575 56.575" stroke="#F0B800" stroke-width="4.67" stroke-linecap="round" stroke-linejoin="round"/>
<path id="Vector_4" d="M6.08333 6.08333L66.9167 66.9167" stroke="#F0B800" stroke-width="4.67" stroke-linecap="round" stroke-linejoin="round"/>
<path id="Vector_5" d="M36.5 36.5V30.4167" stroke="#F0B800" stroke-width="2.53333" stroke-linecap="round" stroke-linejoin="round"/>
</g>
</svg>
