<svg preserveAspectRatio="none" overflow="visible" style="display: block;" width="19.9922" height="19.9922" viewBox="0 0 19.9922 19.9922" fill="none" xmlns="http://www.w3.org/2000/svg">
<g id="Icon">
<path id="Vector" d="M3.06971 12.8651C2.69294 11.9555 2.49902 10.9806 2.49902 9.9961C2.49902 9.01157 2.69294 8.03668 3.06971 7.12709C3.44647 6.21751 3.9987 5.39103 4.69487 4.69487C5.39104 3.9987 6.21751 3.44647 7.12709 3.06971C8.03668 2.69294 9.01157 2.49902 9.9961 2.49902C10.9806 2.49902 11.9555 2.69294 12.8651 3.06971C13.7747 3.44647 14.6012 3.9987 15.2973 4.69487C15.9935 5.39103 16.5457 6.21751 16.9225 7.12709C17.2993 8.03668 17.4932 9.01157 17.4932 9.9961C17.4932 10.9806 17.2993 11.9555 16.9225 12.8651C16.5457 13.7747 15.9935 14.6012 15.2973 15.2973C14.6012 15.9935 13.7747 16.5457 12.8651 16.9225C11.9555 17.2993 10.9806 17.4932 9.9961 17.4932C9.01157 17.4932 8.03668 17.2993 7.12709 16.9225C6.21751 16.5457 5.39104 15.9935 4.69487 15.2973C3.9987 14.6012 3.44647 13.7747 3.06971 12.8651Z" stroke="white" stroke-width="1.49942" stroke-linecap="round" stroke-linejoin="round"/>
<path id="Vector_2" d="M7.49708 8.33008C7.49708 8.99287 7.76036 9.6285 8.22902 10.0972C8.69768 10.5658 9.33332 10.8291 9.9961 10.8291C10.6589 10.8291 11.2945 10.5658 11.7632 10.0972C12.2318 9.6285 12.4951 8.99287 12.4951 8.33008C12.4951 7.6673 12.2318 7.03166 11.7632 6.56301C11.2945 6.09435 10.6589 5.83106 9.9961 5.83106C9.33332 5.83106 8.69768 6.09435 8.22902 6.56301C7.76036 7.03166 7.49708 7.6673 7.49708 8.33008Z" stroke="white" stroke-width="1.49942" stroke-linecap="round" stroke-linejoin="round"/>
<path id="Vector_3" d="M5.138 15.7014C5.34417 15.0152 5.76606 14.4137 6.34106 13.9862C6.91607 13.5587 7.61357 13.3279 8.33008 13.3281H11.6621C12.3796 13.3279 13.0779 13.5592 13.6533 13.9877C14.2288 14.4162 14.6505 15.019 14.8559 15.7064" stroke="white" stroke-width="1.49942" stroke-linecap="round" stroke-linejoin="round"/>
</g>
</svg>
